<svg width="1280" height="1440" viewBox="0 0 1280 1440" fill="none" xmlns="http://www.w3.org/2000/svg">
<g clip-path="url(#clip0_31_118)">
<path d="M1280 0H0V1440H1280V0Z" fill="#3282B8"/>
<g filter="url(#filter0_f_31_118)">
<path d="M336 1242C687.253 1242 972 957.253 972 606C972 254.747 687.253 -30 336 -30C-15.2531 -30 -300 254.747 -300 606C-300 957.253 -15.2531 1242 336 1242Z" fill="#BBE1FA"/>
<path d="M772 1993C1123.25 1993 1408 1708.25 1408 1357C1408 1005.75 1123.25 721 772 721C420.747 721 136 1005.75 136 1357C136 1708.25 420.747 1993 772 1993Z" fill="#3282B8"/>
<path d="M1220 737C1571.25 737 1856 452.253 1856 101C1856 -250.253 1571.25 -535 1220 -535C868.747 -535 584 -250.253 584 101C584 452.253 868.747 737 1220 737Z" fill="#BBE1FA"/>
<path d="M31 1955C382.253 1955 667 1670.25 667 1319C667 967.747 382.253 683 31 683C-320.253 683 -605 967.747 -605 1319C-605 1670.25 -320.253 1955 31 1955Z" fill="#BBE1FA"/>
<path d="M511 916C862.253 916 1147 631.253 1147 280C1147 -71.2531 862.253 -356 511 -356C159.747 -356 -125 -71.2531 -125 280C-125 631.253 159.747 916 511 916Z" fill="#3282B8"/>
<path d="M754 1203C1105.25 1203 1390 918.253 1390 567C1390 215.747 1105.25 -69 754 -69C402.747 -69 118 215.747 118 567C118 918.253 402.747 1203 754 1203Z" fill="#BBE1FA"/>
</g>
</g>
<defs>
<filter id="filter0_f_31_118" x="-1177" y="-1107" width="3605" height="3672" filterUnits="userSpaceOnUse" color-interpolation-filters="sRGB">
<feFlood flood-opacity="0" result="BackgroundImageFix"/>
<feBlend mode="normal" in="SourceGraphic" in2="BackgroundImageFix" result="shape"/>
<feGaussianBlur stdDeviation="286" result="effect1_foregroundBlur_31_118"/>
</filter>
<clipPath id="clip0_31_118">
<rect width="1280" height="1440" fill="white"/>
</clipPath>
</defs>
</svg>
