<svg width="1280" height="1440" viewBox="0 0 1280 1440" fill="none" xmlns="http://www.w3.org/2000/svg">
<g clip-path="url(#clip0_17_183)">
<path d="M1280 0H0V1440H1280V0Z" fill="#0F4C75"/>
<g filter="url(#filter0_f_17_183)">
<path d="M598 1714C949.253 1714 1234 1429.25 1234 1078C1234 726.747 949.253 442 598 442C246.747 442 -38 726.747 -38 1078C-38 1429.25 246.747 1714 598 1714Z" fill="#1B262C"/>
<path d="M779 650C1130.25 650 1415 365.253 1415 14C1415 -337.253 1130.25 -622 779 -622C427.747 -622 143 -337.253 143 14C143 365.253 427.747 650 779 650Z" fill="#0F4C75"/>
<path d="M1140 1071C1491.25 1071 1776 786.253 1776 435C1776 83.7469 1491.25 -201 1140 -201C788.747 -201 504 83.7469 504 435C504 786.253 788.747 1071 1140 1071Z" fill="#1B262C"/>
<path d="M355 1226C706.253 1226 991 941.253 991 590C991 238.747 706.253 -46.0001 355 -46.0001C3.74692 -46.0001 -281 238.747 -281 590C-281 941.253 3.74692 1226 355 1226Z" fill="#1B262C"/>
<path d="M1242 1935C1593.25 1935 1878 1650.25 1878 1299C1878 947.747 1593.25 663 1242 663C890.747 663 606 947.747 606 1299C606 1650.25 890.747 1935 1242 1935Z" fill="#0F4C75"/>
<path d="M217 1987C568.253 1987 853 1702.25 853 1351C853 999.747 568.253 715 217 715C-134.253 715 -419 999.747 -419 1351C-419 1702.25 -134.253 1987 217 1987Z" fill="#1B262C"/>
</g>
</g>
<defs>
<filter id="filter0_f_17_183" x="-991" y="-1194" width="3441" height="3753" filterUnits="userSpaceOnUse" color-interpolation-filters="sRGB">
<feFlood flood-opacity="0" result="BackgroundImageFix"/>
<feBlend mode="normal" in="SourceGraphic" in2="BackgroundImageFix" result="shape"/>
<feGaussianBlur stdDeviation="286" result="effect1_foregroundBlur_17_183"/>
</filter>
<clipPath id="clip0_17_183">
<rect width="1280" height="1440" fill="white"/>
</clipPath>
</defs>
</svg>
