<svg width="190" height="45" viewBox="0 0 190 45" fill="none" xmlns="http://www.w3.org/2000/svg">
<path d="M59.2246 12.0102H63.1119L66.7019 22.5744L66.176 22.3457L69.3086 14.5483L70.8407 19.0987L65.993 29.5028L59.2246 12.0102ZM67.6623 12.0102H70.955L75.0938 22.2314L74.4993 22.1399L77.5862 12.0102H81.1533L74.6593 29.4571L67.6623 12.0102ZM80.7096 23.6033C80.7096 22.582 80.9459 21.6673 81.4184 20.8594C81.9062 20.0515 82.5846 19.4188 83.4535 18.9615C84.3224 18.4889 85.3209 18.2527 86.449 18.2527C87.5923 18.2527 88.5832 18.4889 89.4216 18.9615C90.26 19.4188 90.9003 20.0515 91.3424 20.8594C91.7997 21.6673 92.0283 22.582 92.0283 23.6033C92.0283 24.6247 91.7997 25.547 91.3424 26.3702C90.9003 27.1781 90.26 27.8183 89.4216 28.2909C88.5832 28.7635 87.5771 28.9998 86.4033 28.9998C85.3057 28.9998 84.3224 28.7863 83.4535 28.3595C82.5998 27.9327 81.9291 27.3153 81.4413 26.5074C80.9535 25.6994 80.7096 24.7314 80.7096 23.6033ZM83.9337 23.6262C83.9337 24.1445 84.0404 24.6171 84.2538 25.0439C84.4673 25.4555 84.7569 25.7833 85.1227 26.0272C85.4886 26.2711 85.9002 26.393 86.3575 26.393C86.8606 26.393 87.295 26.2711 87.6609 26.0272C88.0268 25.7833 88.3088 25.4555 88.5069 25.0439C88.7051 24.6171 88.8042 24.1445 88.8042 23.6262C88.8042 23.0927 88.7051 22.6201 88.5069 22.2085C88.3088 21.7969 88.0268 21.4692 87.6609 21.2253C87.295 20.9814 86.8606 20.8594 86.3575 20.8594C85.9002 20.8594 85.4886 20.9814 85.1227 21.2253C84.7569 21.4692 84.4673 21.7969 84.2538 22.2085C84.0404 22.6201 83.9337 23.0927 83.9337 23.6262ZM97.4314 18.7328L97.7286 21.4768L97.66 21.0652C97.9497 20.4707 98.346 19.9676 98.8491 19.556C99.3521 19.1292 99.8476 18.8014 100.335 18.5728C100.838 18.3441 101.22 18.2298 101.479 18.2298L101.319 21.4311C100.572 21.3396 99.9314 21.4615 99.3979 21.7969C98.8643 22.1323 98.4527 22.5744 98.1631 23.1232C97.8735 23.6719 97.7286 24.236 97.7286 24.8153V28.7254H94.5502V18.7328H97.4314ZM103.929 10.6839H107.13V28.7254H103.929V10.6839ZM114.497 28.9998C113.567 28.9998 112.737 28.7863 112.005 28.3595C111.273 27.9174 110.694 27.2848 110.267 26.4616C109.855 25.6384 109.65 24.6628 109.65 23.5347C109.65 22.4067 109.878 21.4463 110.336 20.6536C110.793 19.8609 111.418 19.2588 112.211 18.8472C113.003 18.4356 113.903 18.2298 114.909 18.2298C115.549 18.2298 116.159 18.3289 116.738 18.527C117.333 18.7252 117.828 19.0301 118.224 19.4417V20.4478V10.6839H121.403V28.7254H118.202V26.7817L118.453 27.4677C117.935 27.8946 117.356 28.2604 116.715 28.5653C116.075 28.8549 115.336 28.9998 114.497 28.9998ZM115.549 26.3016C115.976 26.3016 116.349 26.2482 116.67 26.1415C117.005 26.0195 117.295 25.8519 117.538 25.6384C117.798 25.4098 118.019 25.1278 118.202 24.7924V22.3457C118.08 22.0103 117.889 21.7283 117.63 21.4997C117.386 21.2557 117.081 21.0728 116.715 20.9509C116.365 20.8137 115.976 20.7451 115.549 20.7451C115.077 20.7451 114.634 20.867 114.223 21.1109C113.826 21.3396 113.506 21.6597 113.262 22.0713C113.019 22.4829 112.897 22.9555 112.897 23.489C112.897 24.0226 113.019 24.5027 113.262 24.9296C113.506 25.3564 113.826 25.6918 114.223 25.9357C114.634 26.1796 115.077 26.3016 115.549 26.3016ZM145.28 27.3305C145.097 27.483 144.754 27.6888 144.251 27.9479C143.763 28.2071 143.161 28.4357 142.445 28.6339C141.728 28.8321 140.936 28.9235 140.067 28.9083C138.74 28.8778 137.551 28.6415 136.5 28.1994C135.463 27.7421 134.579 27.1247 133.847 26.3473C133.131 25.5698 132.582 24.6781 132.201 23.6719C131.82 22.6658 131.629 21.5911 131.629 20.4478C131.629 19.1673 131.82 17.9935 132.201 16.9264C132.597 15.8593 133.153 14.9371 133.87 14.1596C134.602 13.3822 135.471 12.78 136.477 12.3532C137.483 11.9263 138.596 11.7129 139.815 11.7129C140.943 11.7129 141.942 11.8654 142.811 12.1702C143.68 12.4751 144.388 12.8029 144.937 13.1535L143.634 16.2862C143.253 15.9965 142.742 15.6993 142.102 15.3944C141.477 15.0743 140.753 14.9142 139.929 14.9142C139.289 14.9142 138.672 15.0514 138.077 15.3258C137.498 15.5849 136.98 15.9584 136.522 16.4462C136.08 16.934 135.73 17.5057 135.471 18.1612C135.211 18.8014 135.082 19.5027 135.082 20.2649C135.082 21.0728 135.196 21.8122 135.425 22.4829C135.669 23.1536 136.012 23.7329 136.454 24.2207C136.896 24.6933 137.422 25.0592 138.032 25.3183C138.657 25.5775 139.358 25.707 140.135 25.707C141.035 25.707 141.804 25.5622 142.445 25.2726C143.085 24.9829 143.573 24.6781 143.908 24.3579L145.28 27.3305ZM148.076 10.6839H151.277V28.7254H148.076V10.6839ZM153.797 23.6033C153.797 22.582 154.033 21.6673 154.505 20.8594C154.993 20.0515 155.672 19.4188 156.54 18.9615C157.409 18.4889 158.408 18.2527 159.536 18.2527C160.679 18.2527 161.67 18.4889 162.509 18.9615C163.347 19.4188 163.987 20.0515 164.429 20.8594C164.887 21.6673 165.115 22.582 165.115 23.6033C165.115 24.6247 164.887 25.547 164.429 26.3702C163.987 27.1781 163.347 27.8183 162.509 28.2909C161.67 28.7635 160.664 28.9998 159.49 28.9998C158.393 28.9998 157.409 28.7863 156.54 28.3595C155.687 27.9327 155.016 27.3153 154.528 26.5074C154.04 25.6994 153.797 24.7314 153.797 23.6033ZM157.021 23.6262C157.021 24.1445 157.127 24.6171 157.341 25.0439C157.554 25.4555 157.844 25.7833 158.21 26.0272C158.576 26.2711 158.987 26.393 159.445 26.393C159.948 26.393 160.382 26.2711 160.748 26.0272C161.114 25.7833 161.396 25.4555 161.594 25.0439C161.792 24.6171 161.891 24.1445 161.891 23.6262C161.891 23.0927 161.792 22.6201 161.594 22.2085C161.396 21.7969 161.114 21.4692 160.748 21.2253C160.382 20.9814 159.948 20.8594 159.445 20.8594C158.987 20.8594 158.576 20.9814 158.21 21.2253C157.844 21.4692 157.554 21.7969 157.341 22.2085C157.127 22.6201 157.021 23.0927 157.021 23.6262ZM176.121 27.8336C175.678 28.1842 175.122 28.4662 174.451 28.6796C173.796 28.8931 173.148 28.9998 172.508 28.9998C171.364 28.9998 170.366 28.794 169.512 28.3824C168.674 27.9555 168.018 27.3534 167.546 26.5759C167.088 25.7833 166.86 24.8305 166.86 23.7177C166.86 22.6049 167.111 21.6597 167.614 20.8823C168.117 20.0896 168.773 19.4874 169.581 19.0758C170.404 18.6642 171.265 18.4584 172.165 18.4584C173.064 18.4584 173.842 18.5804 174.497 18.8243C175.168 19.0682 175.739 19.3883 176.212 19.7847L174.657 21.8426C174.444 21.675 174.146 21.5073 173.765 21.3396C173.399 21.1567 172.965 21.0652 172.462 21.0652C172.02 21.0652 171.616 21.1795 171.25 21.4082C170.884 21.6369 170.595 21.9494 170.381 22.3457C170.168 22.7421 170.061 23.1994 170.061 23.7177C170.061 24.2055 170.175 24.6552 170.404 25.0668C170.633 25.4784 170.945 25.8061 171.342 26.05C171.753 26.2787 172.233 26.393 172.782 26.393C173.133 26.393 173.453 26.3473 173.742 26.2558C174.047 26.1491 174.307 26.0043 174.52 25.8214L176.121 27.8336ZM178.579 28.7254V10.6839H181.78V28.7254H178.579ZM184.318 21.9341L188.846 28.7254H185.119L182.215 23.7634L184.318 21.9341ZM180.82 25.9586L180.5 22.9174L186.536 18.4813L188.48 20.1963L180.82 25.9586Z" fill="#1B262C"/>
<circle cx="22.8486" cy="22.8486" r="20.8486" fill="#1B262C"/>
<path d="M3.34502 16.1233C-3.38034 43.0247 30.2464 51.0951 41.6788 31.5915" stroke="#BBE1FA" stroke-width="4.03521"/>
<path d="M16.1233 3.34519C27.5564 0.654929 38.9895 4.69014 43.0247 19.486" stroke="#BBE1FA" stroke-width="4.03521"/>
<path d="M22.8486 8.72537V24.1937L15.4507 30.2465" stroke="#BBE1FA" stroke-width="2.01761"/>
</svg>
